<?xml version="1.0" encoding="UTF-8" standalone="no"?>
<!DOCTYPE svg PUBLIC "-//W3C//DTD SVG 1.1//EN"
 "http://www.w3.org/Graphics/SVG/1.1/DTD/svg11.dtd">
<!-- Generated by graphviz version 2.40.1 (20161225.0304)
 -->
<!-- Title: tree Pages: 1 -->
<svg width="1389pt" height="260pt"
 viewBox="0.00 0.00 1389.06 260.00" xmlns="http://www.w3.org/2000/svg" xmlns:xlink="http://www.w3.org/1999/xlink">
<g id="graph0" class="graph" transform="scale(1 1) rotate(0) translate(4 256)">
<title>tree</title>
<polygon fill="#ffffff" stroke="transparent" points="-4,4 -4,-256 1385.0602,-256 1385.0602,4 -4,4"/>
<!-- TOEIC Vocabulary -->
<g id="node1" class="node">
<title>TOEIC Vocabulary</title>
<ellipse fill="none" stroke="#000000" cx="622.2432" cy="-234" rx="86.8397" ry="18"/>
<text text-anchor="middle" x="622.2432" y="-229.8" font-family="Times,serif" font-size="14.00" fill="#000000">TOEIC Vocabulary</text>
</g>
<!-- Economics -->
<g id="node2" class="node">
<title>Economics</title>
<ellipse fill="none" stroke="#000000" cx="553.2432" cy="-162" rx="53.8924" ry="18"/>
<text text-anchor="middle" x="553.2432" y="-157.8" font-family="Times,serif" font-size="14.00" fill="#000000">Economics</text>
</g>
<!-- TOEIC Vocabulary&#45;&gt;Economics -->
<g id="edge1" class="edge">
<title>TOEIC Vocabulary&#45;&gt;Economics</title>
<path fill="none" stroke="#000000" d="M605.187,-216.2022C596.6848,-207.3303 586.2644,-196.4569 576.9943,-186.7837"/>
<polygon fill="#000000" stroke="#000000" points="579.3111,-184.1428 569.8651,-179.3446 574.2572,-188.9862 579.3111,-184.1428"/>
</g>
<!-- Commerce P1 -->
<g id="node7" class="node">
<title>Commerce P1</title>
<ellipse fill="none" stroke="#000000" cx="729.2432" cy="-162" rx="66.0309" ry="18"/>
<text text-anchor="middle" x="729.2432" y="-157.8" font-family="Times,serif" font-size="14.00" fill="#000000">Commerce P1</text>
</g>
<!-- TOEIC Vocabulary&#45;&gt;Commerce P1 -->
<g id="edge2" class="edge">
<title>TOEIC Vocabulary&#45;&gt;Commerce P1</title>
<path fill="none" stroke="#000000" d="M647.8724,-216.7542C662.1368,-207.1557 680.0687,-195.0894 695.4663,-184.7284"/>
<polygon fill="#000000" stroke="#000000" points="697.8497,-187.3432 704.1923,-178.8566 693.9418,-181.5356 697.8497,-187.3432"/>
</g>
<!-- project (Dự án) -->
<g id="node3" class="node">
<title>project (Dự án)</title>
<ellipse fill="none" stroke="#000000" cx="254.2432" cy="-90" rx="85.6551" ry="18"/>
<text text-anchor="middle" x="254.2432" y="-85.8" font-family="Times,serif" font-size="14.00" fill="#000000">project (Dự án)</text>
</g>
<!-- Economics&#45;&gt;project (Dự án) -->
<g id="edge3" class="edge">
<title>Economics&#45;&gt;project (Dự án)</title>
<path fill="none" stroke="#000000" d="M509.4458,-151.4535C459.6881,-139.4717 377.9466,-119.7881 320.407,-105.9324"/>
<polygon fill="#000000" stroke="#000000" points="321.2161,-102.5273 310.6746,-103.5888 319.5773,-109.3328 321.2161,-102.5273"/>
</g>
<!-- economy (Kinh tế) -->
<g id="node5" class="node">
<title>economy (Kinh tế)</title>
<ellipse fill="none" stroke="#000000" cx="553.2432" cy="-90" rx="96.6945" ry="18"/>
<text text-anchor="middle" x="553.2432" y="-85.8" font-family="Times,serif" font-size="14.00" fill="#000000">economy (Kinh tế)</text>
</g>
<!-- Economics&#45;&gt;economy (Kinh tế) -->
<g id="edge4" class="edge">
<title>Economics&#45;&gt;economy (Kinh tế)</title>
<path fill="none" stroke="#000000" d="M553.2432,-143.8314C553.2432,-136.131 553.2432,-126.9743 553.2432,-118.4166"/>
<polygon fill="#000000" stroke="#000000" points="556.7433,-118.4132 553.2432,-108.4133 549.7433,-118.4133 556.7433,-118.4132"/>
</g>
<!-- Example: Dự án đang diễn ra. -->
<g id="node4" class="node">
<title>Example: Dự án đang diễn ra.</title>
<ellipse fill="none" stroke="#000000" cx="154.2432" cy="-18" rx="154.4868" ry="18"/>
<text text-anchor="middle" x="154.2432" y="-13.8" font-family="Times,serif" font-size="14.00" fill="#000000">Example: Dự án đang diễn ra.</text>
</g>
<!-- project (Dự án)&#45;&gt;Example: Dự án đang diễn ra. -->
<g id="edge5" class="edge">
<title>project (Dự án)&#45;&gt;Example: Dự án đang diễn ra.</title>
<path fill="none" stroke="#000000" d="M230.036,-72.5708C217.2073,-63.3341 201.259,-51.8514 187.3062,-41.8054"/>
<polygon fill="#000000" stroke="#000000" points="189.0826,-38.7716 178.9222,-35.7689 184.9925,-44.4523 189.0826,-38.7716"/>
</g>
<!-- Example: Kinh tế toàn cầu đang cải thiện. -->
<g id="node6" class="node">
<title>Example: Kinh tế toàn cầu đang cải thiện.</title>
<ellipse fill="none" stroke="#000000" cx="553.2432" cy="-18" rx="226.2805" ry="18"/>
<text text-anchor="middle" x="553.2432" y="-13.8" font-family="Times,serif" font-size="14.00" fill="#000000">Example: Kinh tế toàn cầu đang cải thiện.</text>
</g>
<!-- economy (Kinh tế)&#45;&gt;Example: Kinh tế toàn cầu đang cải thiện. -->
<g id="edge6" class="edge">
<title>economy (Kinh tế)&#45;&gt;Example: Kinh tế toàn cầu đang cải thiện.</title>
<path fill="none" stroke="#000000" d="M553.2432,-71.8314C553.2432,-64.131 553.2432,-54.9743 553.2432,-46.4166"/>
<polygon fill="#000000" stroke="#000000" points="556.7433,-46.4132 553.2432,-36.4133 549.7433,-46.4133 556.7433,-46.4132"/>
</g>
<!-- trade (Thương mại) -->
<g id="node8" class="node">
<title>trade (Thương mại)</title>
<ellipse fill="none" stroke="#000000" cx="928.2432" cy="-90" rx="100.1399" ry="18"/>
<text text-anchor="middle" x="928.2432" y="-85.8" font-family="Times,serif" font-size="14.00" fill="#000000">trade (Thương mại)</text>
</g>
<!-- Commerce P1&#45;&gt;trade (Thương mại) -->
<g id="edge7" class="edge">
<title>Commerce P1&#45;&gt;trade (Thương mại)</title>
<path fill="none" stroke="#000000" d="M769.0355,-147.6028C799.1798,-136.6963 840.9264,-121.592 874.1084,-109.5865"/>
<polygon fill="#000000" stroke="#000000" points="875.4524,-112.8223 883.665,-106.1288 873.0708,-106.2399 875.4524,-112.8223"/>
</g>
<!-- Example: Thương mại giữa các quốc gia rất quan trọng. -->
<g id="node9" class="node">
<title>Example: Thương mại giữa các quốc gia rất quan trọng.</title>
<ellipse fill="none" stroke="#000000" cx="1089.2432" cy="-18" rx="291.6341" ry="18"/>
<text text-anchor="middle" x="1089.2432" y="-13.8" font-family="Times,serif" font-size="14.00" fill="#000000">Example: Thương mại giữa các quốc gia rất quan trọng.</text>
</g>
<!-- trade (Thương mại)&#45;&gt;Example: Thương mại giữa các quốc gia rất quan trọng. -->
<g id="edge8" class="edge">
<title>trade (Thương mại)&#45;&gt;Example: Thương mại giữa các quốc gia rất quan trọng.</title>
<path fill="none" stroke="#000000" d="M965.9905,-73.1192C988.0623,-63.2486 1016.1747,-50.6766 1039.9759,-40.0326"/>
<polygon fill="#000000" stroke="#000000" points="1041.5023,-43.1841 1049.2022,-35.9065 1038.6446,-36.794 1041.5023,-43.1841"/>
</g>
</g>
</svg>
